<svg width="119" height="119" viewBox="0 0 119 119" fill="none" xmlns="http://www.w3.org/2000/svg">
<g id="Group 1" filter="url(#filter0_d_2_2)">
<path id="Star 1" d="M59.5 15L60.818 30.6978L65.0829 15.5331L63.4062 31.1966L70.464 17.1131L65.8533 32.1763L75.4489 19.683L68.0708 33.6014L79.8573 23.1498L69.9785 35.4204L83.53 27.3883L71.5074 37.5675L86.3341 32.2453L72.6024 39.9652L88.1684 37.5451L73.2239 42.5268L88.9666 43.0963L73.3493 45.1597L88.6997 48.6983L72.9742 47.7688L87.3775 54.1485L72.112 50.2597L85.0477 59.25L70.7941 52.5425L81.7946 63.8184L69.0679 54.5346L77.7357 67.6886L66.996 56.164L73.0177 70.7206L64.6531 57.3718L67.8111 72.805L62.124 58.1144L62.3042 73.8664L59.5 58.365L56.6958 73.8664L56.876 58.1144L51.1889 72.805L54.3469 57.3718L45.9823 70.7206L52.004 56.164L41.2643 67.6886L49.9321 54.5346L37.2054 63.8184L48.2059 52.5425L33.9523 59.25L46.888 50.2597L31.6225 54.1485L46.0258 47.7688L30.3003 48.6983L45.6507 45.1597L30.0334 43.0963L45.7761 42.5268L30.8316 37.5451L46.3976 39.9652L32.6659 32.2453L47.4926 37.5675L35.47 27.3883L49.0215 35.4204L39.1427 23.1498L50.9292 33.6014L43.5511 19.683L53.1467 32.1763L48.536 17.1131L55.5938 31.1966L53.9171 15.5331L58.182 30.6978L59.5 15Z" fill="#0487C1"/>
<path id="Star 2" d="M59.3219 37.6257C59.7049 37.2723 60.2951 37.2723 60.6781 37.6257L63.3934 40.131C63.4507 40.1839 63.5141 40.2299 63.5821 40.2681L66.8038 42.0763C67.2583 42.3313 67.4407 42.8927 67.2229 43.3661L65.6793 46.7227C65.6467 46.7936 65.6225 46.868 65.6072 46.9445L64.8831 50.5674C64.781 51.0784 64.3035 51.4253 63.7859 51.3645L60.1166 50.9337C60.0391 50.9246 59.9609 50.9246 59.8834 50.9337L56.2141 51.3645C55.6965 51.4253 55.219 51.0784 55.1169 50.5674L54.3928 46.9445C54.3775 46.868 54.3533 46.7936 54.3207 46.7227L52.7771 43.3661C52.5593 42.8927 52.7417 42.3313 53.1962 42.0763L56.4179 40.2681C56.4859 40.2299 56.5493 40.1839 56.6066 40.131L59.3219 37.6257Z" fill="#0297D7"/>
</g>
<defs>
<filter id="filter0_d_2_2" x="0.0334473" y="0" width="118.933" height="118.866" filterUnits="userSpaceOnUse" color-interpolation-filters="sRGB">
<feFlood flood-opacity="0" result="BackgroundImageFix"/>
<feColorMatrix in="SourceAlpha" type="matrix" values="0 0 0 0 0 0 0 0 0 0 0 0 0 0 0 0 0 0 127 0" result="hardAlpha"/>
<feOffset dy="15"/>
<feGaussianBlur stdDeviation="15"/>
<feComposite in2="hardAlpha" operator="out"/>
<feColorMatrix type="matrix" values="0 0 0 0 0.0156863 0 0 0 0 0.529412 0 0 0 0 0.756863 0 0 0 0.25 0"/>
<feBlend mode="normal" in2="BackgroundImageFix" result="effect1_dropShadow_2_2"/>
<feBlend mode="normal" in="SourceGraphic" in2="effect1_dropShadow_2_2" result="shape"/>
</filter>
</defs>
</svg>
